<svg xmlns="http://www.w3.org/2000/svg" viewBox="0 0 256 256"><defs><style>.cls-1{fill:#ff0909;}.cls-1,.cls-4{fill-rule:evenodd;}.cls-2{fill:#09ff26;}.cls-3{fill:#f0f;}.cls-4{fill:#ffff0a;}.cls-5{fill:#fff;}</style></defs><g id="Ebene_2" data-name="Ebene 2"><g id="Ebene_1-2" data-name="Ebene 1"><rect id="Hintergrund_Elipse" data-name="Hintergrund Elipse" width="256" height="256" rx="47.25"/><path class="cls-1" d="M113.55,0H47.25A47.24,47.24,0,0,0,0,47.25v50A132.44,132.44,0,0,0,113.55,0Z"/><path class="cls-2" d="M208.75,0H164V93h92V47.25A47.25,47.25,0,0,0,208.75,0Z"/><path class="cls-3" d="M0,208.75A47.25,47.25,0,0,0,47.25,256H90V166H0Z"/><path class="cls-4" d="M165.3,166.06l30,89.94h13.47A47.26,47.26,0,0,0,256,208.75V196.29Z"/><path class="cls-5" d="M43.51,105.59a59,59,0,0,1,11.13-1c6.09,0,10,1,13,3.43a9.89,9.89,0,0,1,3.92,8.33c0,4.55-3,8.54-8,10.36v.14C68,128,73.26,131.7,73.26,138.7a12.72,12.72,0,0,1-4,9.45c-3.29,3-8.61,4.41-16.31,4.41a71.19,71.19,0,0,1-9.45-.56Zm6.09,19.32h5.53c6.44,0,10.22-3.36,10.22-7.91,0-5.53-4.2-7.7-10.36-7.7a26.12,26.12,0,0,0-5.39.42Zm0,22.61a32.54,32.54,0,0,0,5.11.28c6.3,0,12.11-2.31,12.11-9.17,0-6.44-5.53-9.1-12.18-9.1h-5Z"/><path class="cls-5" d="M87.54,105v27.93c0,10.57,4.69,15.05,11,15.05,7,0,11.48-4.62,11.48-15.05V105h6.16v27.51c0,14.49-7.63,20.44-17.85,20.44-9.66,0-16.94-5.53-16.94-20.16V105Z"/><path class="cls-5" d="M132.83,105v47.18h-6.09V105Z"/><path class="cls-5" d="M143.47,105h6.09V147h20.16v5.11H143.47Z"/><path class="cls-5" d="M176.51,105.59a87.23,87.23,0,0,1,13-1c8.75,0,15,2,19.11,5.88s6.65,9.31,6.65,16.94-2.38,14-6.79,18.34-11.69,6.79-20.86,6.79a98.3,98.3,0,0,1-11.06-.56Zm6.09,41.72a38.46,38.46,0,0,0,6.16.35c13,0,20.09-7.28,20.09-20,.07-11.13-6.23-18.2-19.11-18.2a34.6,34.6,0,0,0-7.14.63Z"/></g></g></svg>