<svg xmlns="http://www.w3.org/2000/svg" viewBox="0 0 256 256"><defs><style>.cls-1{fill:#ff0909;}.cls-1,.cls-4{fill-rule:evenodd;}.cls-2{fill:#09ff26;}.cls-3{fill:#f0f;}.cls-4{fill:#ffff0a;}.cls-5{fill:#fff;}</style></defs><g id="Ebene_2" data-name="Ebene 2"><g id="Ebene_1-2" data-name="Ebene 1"><rect id="Hintergrund_Elipse" data-name="Hintergrund Elipse" width="256" height="256" rx="47.25"/><path class="cls-1" d="M113.55,0H47.25A47.24,47.24,0,0,0,0,47.25v50A132.44,132.44,0,0,0,113.55,0Z"/><path class="cls-2" d="M208.75,0H164V93h92V47.25A47.25,47.25,0,0,0,208.75,0Z"/><path class="cls-3" d="M0,208.75A47.25,47.25,0,0,0,47.25,256H90V166H0Z"/><path class="cls-4" d="M165.3,166.06l30,89.94h13.47A47.26,47.26,0,0,0,256,208.75V196.29Z"/><path class="cls-5" d="M42.5,144.72a21.58,21.58,0,0,0,10.92,3.08c6.23,0,9.87-3.29,9.87-8.05,0-4.41-2.52-6.93-8.89-9.38-7.7-2.73-12.47-6.72-12.47-13.37,0-7.35,6.1-12.81,15.27-12.81a21.44,21.44,0,0,1,10.43,2.31l-1.68,5a18.79,18.79,0,0,0-9-2.24c-6.44,0-8.89,3.85-8.89,7.07,0,4.41,2.87,6.58,9.38,9.1,8,3.08,12,6.93,12,13.86,0,7.28-5.39,13.58-16.52,13.58-4.55,0-9.53-1.33-12-3Z"/><path class="cls-5" d="M86.81,110.14H72.45V105h34.94v5.18H93v42H86.81Z"/><path class="cls-5" d="M115,137.3l-4.91,14.84h-6.3l16-47.18h7.35l16.1,47.18h-6.51l-5-14.84Zm15.47-4.76L125.87,119c-1.05-3.08-1.75-5.88-2.45-8.61h-.14c-.7,2.8-1.47,5.67-2.38,8.54l-4.62,13.65Z"/><path class="cls-5" d="M150.22,105.59a63.63,63.63,0,0,1,11.7-1c6.51,0,10.71,1.19,13.65,3.85a11.75,11.75,0,0,1,3.71,9c0,6.23-3.92,10.36-8.89,12v.21c3.64,1.26,5.81,4.62,6.93,9.52,1.54,6.58,2.66,11.13,3.64,12.95h-6.3c-.77-1.33-1.82-5.39-3.15-11.27-1.4-6.51-3.92-9-9.45-9.17h-5.74v20.44h-6.1Zm6.1,21.49h6.23c6.51,0,10.64-3.57,10.64-9,0-6.09-4.41-8.75-10.85-8.82a25.06,25.06,0,0,0-6,.56Z"/><path class="cls-5" d="M197.47,110.14H183.12V105h34.94v5.18H203.64v42h-6.17Z"/></g></g></svg>