<svg id="Ebene_1" data-name="Ebene 1" xmlns="http://www.w3.org/2000/svg" viewBox="0 0 256 256"><defs><style>.cls-1{fill:#ff0909;}.cls-1,.cls-4{fill-rule:evenodd;}.cls-2{fill:#09ff26;}.cls-3{fill:#f0f;}.cls-4{fill:#ffff0a;}</style></defs><rect id="Hintergrund_Elipse" data-name="Hintergrund Elipse" width="256" height="256" rx="47.25"/><path class="cls-1" d="M113.55,0H47.25A47.26,47.26,0,0,0,0,47.25v50A132.43,132.43,0,0,0,113.55,0Z" transform="translate(0 0)"/><path class="cls-2" d="M208.75,0H164V93h92V47.25A47.26,47.26,0,0,0,208.75,0Z" transform="translate(0 0)"/><path class="cls-3" d="M0,208.75A47.26,47.26,0,0,0,47.25,256H90V166H0Z" transform="translate(0 0)"/><path class="cls-4" d="M165.3,166.06l30,89.94h13.47A47.26,47.26,0,0,0,256,208.75V196.29Z" transform="translate(0 0)"/></svg>